<svg width="25" height="24" viewBox="0 0 25 24" fill="none" xmlns="http://www.w3.org/2000/svg">
<g clip-path="url(#clip0_67_802)">
<path d="M24.4875 12.2245C24.4875 11.2413 24.4059 10.5238 24.2292 9.77966H12.7393V14.2176H19.4836C19.3477 15.3205 18.6134 16.9815 16.9817 18.0976L16.9588 18.2462L20.5917 20.9964L20.8434 21.0209C23.1549 18.9347 24.4875 15.8653 24.4875 12.2245Z" fill="#4285F4"/>
<path d="M12.7391 23.9176C16.0433 23.9176 18.8171 22.8545 20.8432 21.0209L16.9815 18.0976C15.9481 18.8018 14.5611 19.2934 12.7391 19.2934C9.50291 19.2934 6.75622 17.2074 5.77711 14.324L5.63359 14.3359L1.85604 17.1927L1.80664 17.3269C3.81906 21.2334 7.95273 23.9176 12.7391 23.9176Z" fill="#34A853"/>
<path d="M5.77678 14.324C5.51843 13.5799 5.36891 12.7826 5.36891 11.9588C5.36891 11.1349 5.51843 10.3377 5.76318 9.5936L5.75634 9.43513L1.93145 6.53241L1.80631 6.59058C0.976896 8.21168 0.500977 10.0321 0.500977 11.9588C0.500977 13.8855 0.976896 15.7058 1.80631 17.3269L5.77678 14.324Z" fill="#FBBC05"/>
<path d="M12.7391 4.62403C15.0371 4.62403 16.5871 5.59402 17.471 6.40461L20.9248 3.10928C18.8036 1.1826 16.0433 0 12.7391 0C7.95273 0 3.81906 2.68406 1.80664 6.59057L5.76351 9.59359C6.75622 6.7102 9.50291 4.62403 12.7391 4.62403Z" fill="#EB4335"/>
</g>
<defs>
<clipPath id="clip0_67_802">
<rect width="24" height="24" fill="white" transform="translate(0.5)"/>
</clipPath>
</defs>
</svg>
