<svg width="20" height="21" viewBox="0 0 20 21" fill="none" xmlns="http://www.w3.org/2000/svg">
<path d="M11.0281 0.930886C11.7578 0.928158 12.4876 0.935304 13.2171 0.952322L13.4111 0.959143C13.6351 0.966938 13.8561 0.976681 14.1231 0.988374C15.1871 1.03709 15.9131 1.20078 16.5501 1.44145C17.2101 1.68894 17.7661 2.02412 18.3221 2.56586C18.8305 3.05266 19.2239 3.6415 19.4751 4.29145C19.7221 4.91212 19.8901 5.62048 19.9401 6.65719C19.9521 6.91637 19.9621 7.13268 19.9701 7.35094L19.9761 7.53996C19.9939 8.25046 20.0015 8.96116 19.9991 9.67186L20.0001 10.3987V11.6751C20.0026 12.3862 19.9949 13.0972 19.9771 13.808L19.9711 13.997C19.9631 14.2153 19.9531 14.4306 19.9411 14.6908C19.8911 15.7275 19.7211 16.4349 19.4751 17.0556C19.2247 17.7062 18.8312 18.2955 18.3221 18.7821C17.8221 19.2774 17.2174 19.6607 16.5501 19.9056C15.9131 20.1462 15.1871 20.3099 14.1231 20.3586C13.8561 20.3703 13.6351 20.3801 13.4111 20.3879L13.2171 20.3937C12.4876 20.411 11.7578 20.4185 11.0281 20.4161L10.2821 20.4171H8.97309C8.24335 20.4195 7.51361 20.412 6.78409 20.3947L6.59009 20.3888C6.3527 20.3805 6.11536 20.3707 5.87809 20.3596C4.81409 20.3109 4.08809 20.1452 3.45009 19.9056C2.78277 19.6613 2.17833 19.2779 1.67909 18.7821C1.17013 18.2952 0.776313 17.706 0.525089 17.0556C0.278089 16.4349 0.110089 15.7275 0.0600887 14.6908C0.0489516 14.4596 0.0389515 14.2283 0.0300887 13.997L0.0250888 13.808C0.0066524 13.0972 -0.00168183 12.3862 8.87195e-05 11.6751V9.67186C-0.00270225 8.96116 0.00463187 8.25046 0.0220888 7.53996L0.0290888 7.35094C0.0370888 7.13268 0.0470887 6.91637 0.0590887 6.65719C0.109089 5.6195 0.277089 4.91309 0.524089 4.29145C0.775461 3.64118 1.17005 3.0525 1.68009 2.56684C2.17898 2.07064 2.78305 1.68657 3.45009 1.44145C4.08809 1.20078 4.81309 1.03709 5.87809 0.988374L6.59009 0.959143L6.78409 0.954271C7.51327 0.936316 8.24267 0.928196 8.97209 0.929912L11.0281 0.930886ZM10.0001 5.80268C9.33759 5.79355 8.67985 5.91281 8.06507 6.15352C7.45029 6.39423 6.89074 6.75159 6.41893 7.20484C5.94713 7.65809 5.57249 8.19818 5.31678 8.79373C5.06106 9.38929 4.92938 10.0284 4.92938 10.674C4.92938 11.3196 5.06106 11.9587 5.31678 12.5542C5.57249 13.1498 5.94713 13.6899 6.41893 14.1431C6.89074 14.5964 7.45029 14.9538 8.06507 15.1945C8.67985 15.4352 9.33759 15.5544 10.0001 15.5453C11.3262 15.5453 12.5979 15.032 13.5356 14.1184C14.4733 13.2047 15.0001 11.9656 15.0001 10.6735C15.0001 9.38142 14.4733 8.14226 13.5356 7.22862C12.5979 6.31498 11.3262 5.80268 10.0001 5.80268ZM10.0001 7.7514C10.3986 7.74425 10.7946 7.81454 11.1649 7.95817C11.5352 8.1018 11.8724 8.31589 12.1569 8.58793C12.4413 8.85997 12.6673 9.18452 12.8215 9.5426C12.9758 9.90069 13.0553 10.2851 13.0554 10.6735C13.0554 11.0618 12.9761 11.4463 12.8219 11.8045C12.6678 12.1626 12.4419 12.4872 12.1576 12.7593C11.8732 13.0315 11.5361 13.2457 11.1658 13.3894C10.7955 13.5332 10.3996 13.6036 10.0011 13.5966C9.20544 13.5966 8.44238 13.2886 7.87977 12.7404C7.31716 12.1922 7.00109 11.4488 7.00109 10.6735C7.00109 9.89825 7.31716 9.15476 7.87977 8.60657C8.44238 8.05839 9.20544 7.75042 10.0011 7.75042L10.0001 7.7514ZM15.2501 4.34114C14.9275 4.35372 14.6224 4.48744 14.3987 4.71429C14.175 4.94115 14.0501 5.24353 14.0501 5.55812C14.0501 5.8727 14.175 6.17509 14.3987 6.40194C14.6224 6.62879 14.9275 6.76251 15.2501 6.77509C15.5816 6.77509 15.8996 6.64677 16.134 6.41836C16.3684 6.18995 16.5001 5.88016 16.5001 5.55714C16.5001 5.23412 16.3684 4.92433 16.134 4.69592C15.8996 4.46751 15.5816 4.33919 15.2501 4.33919V4.34114Z" fill="#423F3F"/>
</svg>
