<svg width="20" height="19" viewBox="0 0 20 19" fill="none" xmlns="http://www.w3.org/2000/svg">
<path d="M4 2.21291C3.99974 2.74335 3.78877 3.25195 3.41351 3.62684C3.03825 4.00172 2.52943 4.21218 1.999 4.21191C1.46857 4.21165 0.959965 4.00068 0.585079 3.62542C0.210194 3.25016 -0.000264966 2.74135 2.50361e-07 2.21091C0.000265467 1.68048 0.211233 1.17188 0.586494 0.796993C0.961754 0.422108 1.47057 0.211649 2.001 0.211914C2.53143 0.21218 3.04004 0.423147 3.41492 0.798408C3.78981 1.17367 4.00027 1.68248 4 2.21291ZM4.06 5.69291H0.0600002V18.2129H4.06V5.69291ZM10.38 5.69291H6.4V18.2129H10.34V11.6429C10.34 7.98291 15.11 7.64291 15.11 11.6429V18.2129H19.06V10.2829C19.06 4.11291 12 4.34291 10.34 7.37291L10.38 5.69291Z" fill="#423F3F"/>
</svg>
